<?xml version="1.0" standalone="no"?>
<!DOCTYPE svg PUBLIC "-//W3C//DTD SVG 20010904//EN"
 "http://www.w3.org/TR/2001/REC-SVG-20010904/DTD/svg10.dtd">
<svg version="1.0" xmlns="http://www.w3.org/2000/svg"
 width="1500.000000pt" height="1500.000000pt" viewBox="0 0 1500.000000 1500.000000"
 preserveAspectRatio="xMidYMid meet">

<g transform="translate(0.000000,1500.000000) scale(0.100000,-0.100000)"
fill="#000000" stroke="none">
<path d="M8254 13475 c-52 -27 -78 -91 -99 -248 -9 -68 -26 -55 -47 34 -21 92
-55 129 -119 129 -46 0 -93 -21 -104 -47 -23 -58 -23 -76 0 -170 14 -53 27
-104 30 -115 4 -10 3 -18 -2 -18 -4 0 -30 43 -57 96 -66 126 -115 167 -183
150 -39 -10 -83 -62 -83 -98 l0 -30 -27 18 c-16 10 -46 17 -70 17 -75 0 -119
-65 -103 -153 l8 -41 -27 24 c-14 14 -36 28 -49 32 -56 16 -142 -47 -142 -105
l0 -29 -37 15 c-74 31 -153 -19 -153 -97 l0 -37 -31 15 c-41 21 -91 10 -129
-29 -17 -17 -33 -43 -37 -58 -5 -25 -8 -27 -42 -23 -25 3 -46 -2 -69 -16 -57
-36 -68 -107 -27 -179 25 -44 22 -45 -31 -5 -39 29 -97 30 -141 3 -55 -33 -64
-119 -17 -171 13 -14 8 -16 -44 -16 -67 0 -96 -13 -117 -53 -29 -56 -10 -126
43 -154 l27 -14 -26 -7 c-15 -4 -40 -20 -55 -36 -24 -25 -29 -39 -29 -81 0
-43 4 -53 28 -72 l29 -23 -21 -34 c-25 -40 -26 -70 -6 -108 21 -41 63 -55 141
-47 61 6 65 6 60 -12 -8 -25 9 -180 35 -312 41 -213 73 -303 184 -521 58 -114
105 -211 105 -215 0 -5 -23 -22 -52 -39 -81 -47 -105 -103 -73 -165 21 -40 59
-41 73 -2 7 22 21 31 64 45 72 22 71 23 103 -19 l27 -35 -55 -58 c-88 -92
-127 -192 -127 -326 0 -187 96 -352 251 -429 86 -43 155 -58 255 -54 l79 3 23
-85 c45 -169 122 -299 265 -447 115 -119 166 -144 207 -103 37 37 26 56 -104
183 -130 129 -196 218 -282 384 l-48 93 26 27 c34 38 39 57 21 83 -15 21 -21
22 -82 16 -36 -4 -91 -10 -122 -13 -160 -16 -304 93 -346 261 -50 204 82 397
316 462 49 14 66 15 69 6 2 -7 10 -12 18 -12 28 0 92 -40 122 -76 37 -45 52
-41 83 23 20 40 24 67 27 166 5 133 -3 125 97 106 67 -12 126 -39 171 -79 23
-19 47 -29 87 -34 31 -3 82 -16 113 -27 65 -25 75 -42 93 -158 42 -269 187
-437 421 -487 97 -21 204 -13 307 21 115 39 179 79 268 169 120 121 169 237
170 403 l0 81 96 13 c94 12 163 7 174 -11 3 -6 11 -38 16 -72 37 -231 156
-414 319 -492 60 -29 73 -31 171 -31 99 0 110 2 167 32 l61 31 -4 -26 c-3 -15
-12 -88 -20 -162 -37 -312 -85 -487 -181 -651 -142 -243 -359 -422 -609 -502
-130 -42 -192 -51 -340 -51 -241 0 -446 62 -661 200 -61 38 -73 40 -113 19
-33 -17 -56 -65 -47 -99 13 -54 238 -184 406 -236 187 -58 394 -75 577 -49
123 18 112 23 137 -61 37 -127 87 -209 183 -302 32 -31 69 -66 82 -76 l24 -19
-51 -159 c-117 -358 -211 -476 -429 -531 -59 -16 -117 -18 -418 -18 -322 0
-361 2 -480 24 -331 59 -590 178 -774 355 -102 99 -147 160 -243 332 l-84 149
76 0 c66 0 82 4 135 33 141 76 270 215 350 377 74 148 108 334 64 343 -11 2
-19 -10 -28 -40 -79 -265 -264 -475 -479 -544 -82 -26 -85 -26 -123 -9 -37 17
-48 17 -214 1 -333 -32 -748 -115 -1315 -263 -384 -99 -474 -131 -577 -201
-74 -50 -555 -456 -1498 -1263 -49 -42 -229 -195 -400 -339 -170 -144 -365
-309 -433 -367 -68 -57 -127 -114 -131 -126 -10 -25 3 -55 31 -75 17 -12 10
-20 -83 -90 -193 -144 -595 -547 -912 -912 -154 -177 -163 -298 -40 -515 109
-191 426 -639 628 -890 300 -372 655 -723 979 -970 154 -117 273 -195 299
-195 47 0 75 64 45 102 -7 8 -56 44 -108 79 -457 307 -1010 886 -1462 1529
-103 147 -288 430 -313 481 -52 102 -37 173 65 299 113 142 554 621 848 922
l115 118 51 -43 c155 -127 425 -412 566 -597 90 -118 220 -311 220 -327 0 -8
-17 -24 -37 -36 -121 -70 -433 -296 -463 -334 -26 -33 -26 -84 0 -108 18 -16
32 -17 71 -1 12 5 27 -13 64 -79 48 -85 382 -537 544 -735 375 -460 739 -820
1111 -1098 127 -96 148 -106 182 -93 35 13 61 63 53 102 -4 16 -20 39 -38 52
-299 217 -426 325 -663 561 -208 209 -328 342 -658 731 -248 291 -454 525
-465 525 -3 1 -25 18 -48 39 l-43 38 156 129 c85 71 166 138 180 149 l24 19
43 -40 c62 -60 110 -93 144 -100 43 -9 121 21 383 147 347 165 637 293 939
411 152 59 523 188 529 183 11 -9 64 -454 89 -745 26 -298 26 -1196 0 -1530
-36 -460 -44 -526 -69 -560 -46 -63 -24 -134 52 -169 49 -22 682 -26 1780 -12
1124 15 1633 3 2255 -51 319 -28 670 -31 728 -6 38 17 63 58 52 85 -3 10 1 13
13 9 36 -12 276 -26 331 -20 98 11 120 40 53 67 -50 20 -80 25 -235 41 -70 7
-133 18 -138 23 -15 15 69 77 139 104 36 13 84 21 127 22 60 2 75 -2 102 -22
23 -18 39 -22 61 -18 22 5 41 -1 77 -24 26 -17 50 -28 53 -25 3 4 -9 24 -26
45 -28 35 -31 43 -20 65 16 36 -2 91 -47 143 -34 40 -36 46 -51 175 -22 182
-30 728 -15 983 23 390 105 1056 125 1020 47 -79 135 -170 262 -268 115 -90
147 -120 186 -179 26 -40 57 -78 70 -85 35 -19 94 -15 141 9 25 14 60 23 87
23 25 0 54 3 65 7 16 6 26 -1 50 -38 17 -24 47 -56 67 -70 l37 -26 -38 -47
c-87 -105 -175 -294 -383 -826 -210 -536 -412 -1113 -406 -1161 2 -15 15 -36
30 -47 39 -29 72 -12 99 50 50 115 256 630 301 753 178 483 386 1108 404 1210
10 61 10 61 51 43 48 -20 173 -42 238 -43 80 0 124 32 112 82 -9 35 -43 47
-177 57 -63 6 -135 17 -160 26 -79 28 -150 85 -107 85 23 0 238 112 317 165
97 64 226 193 283 281 70 109 119 253 142 419 l7 50 15 -50 c8 -27 58 -146
110 -265 121 -272 154 -360 189 -496 25 -95 28 -128 29 -259 0 -110 -5 -173
-19 -235 -44 -204 -148 -467 -320 -810 -101 -202 -167 -319 -421 -755 -123
-212 -165 -301 -165 -352 0 -38 51 -83 95 -83 30 0 44 8 85 51 151 158 580
911 762 1338 136 320 208 609 208 835 0 157 -48 342 -128 489 -55 102 -326
499 -384 563 l-49 53 -2 88 c-2 77 -6 97 -34 154 -18 36 -56 99 -86 140 -89
125 -333 487 -724 1074 -204 308 -402 602 -439 653 -116 159 -162 189 -755
481 -635 313 -826 381 -902 321 -14 -11 -28 -20 -32 -20 -12 0 -109 97 -152
152 -40 52 -123 201 -123 221 0 4 8 10 18 14 265 91 478 246 644 468 183 244
252 514 278 1081 9 204 14 252 36 328 14 49 34 107 45 127 30 59 77 109 102
106 34 -3 49 37 44 126 -3 65 -8 81 -28 103 -33 35 -68 52 -152 73 l-71 17
-17 96 c-63 358 -219 726 -417 986 -44 57 1 26 103 -72 103 -99 156 -126 205
-106 17 7 37 22 45 34 20 27 19 100 -1 142 -22 47 -116 137 -202 195 -41 27
-72 49 -70 49 25 0 168 -49 219 -75 97 -49 139 -60 182 -46 63 21 86 85 54
148 -33 63 -143 131 -260 159 -15 3 -26 8 -24 11 2 2 49 -6 103 -18 120 -26
185 -22 220 12 33 33 44 77 30 119 -22 68 -86 91 -361 132 -129 19 -145 24
-117 32 18 5 46 24 62 43 66 75 17 166 -102 187 -51 9 -289 -20 -406 -49 -53
-14 -103 -25 -112 -24 -26 1 121 54 213 77 100 25 132 43 153 83 43 83 -14
157 -115 147 -49 -5 -202 -69 -285 -119 l-51 -31 41 43 c72 76 91 138 59 199
-20 40 -53 60 -95 60 -48 -1 -65 -12 -160 -112 -46 -49 -87 -88 -92 -88 -4 0
12 30 36 68 56 84 63 110 40 157 -24 51 -68 77 -118 71 -48 -6 -83 -38 -137
-127 -36 -60 -71 -91 -86 -76 -2 3 12 23 31 45 29 32 36 47 36 81 0 84 -48
131 -134 131 -69 0 -97 -30 -148 -161 -32 -83 -46 -109 -60 -109 -21 0 -22 8
-7 47 30 80 39 134 25 167 -28 67 -102 94 -165 61 -38 -19 -60 -63 -95 -191
-28 -103 -34 -102 -10 2 10 42 14 85 10 106 -13 71 -98 115 -162 83z m1445
-884 c46 -24 63 -44 55 -65 -9 -22 -28 -20 -80 10 -40 24 -55 50 -37 67 10 11
21 8 62 -12z m-2656 -164 c42 -19 57 -31 57 -46 0 -34 -18 -34 -101 -1 -69 28
-79 35 -79 57 0 23 3 25 33 20 17 -3 58 -16 90 -30z m2275 -77 c64 -24 82 -36
82 -51 0 -11 -7 -22 -15 -25 -20 -8 -177 50 -189 69 -11 18 10 51 28 44 6 -3
48 -19 94 -37z m-225 -332 c46 -62 104 -146 128 -187 59 -98 107 -141 158
-141 57 0 91 32 98 91 6 54 -16 103 -86 194 -58 74 -71 95 -50 79 8 -6 50 -38
94 -71 44 -33 114 -91 155 -128 110 -99 179 -120 236 -72 23 20 27 32 27 71
-2 70 -38 116 -166 206 l-72 51 85 -7 c84 -6 86 -7 123 -48 135 -147 304 -448
380 -676 41 -121 85 -313 94 -405 l6 -63 -124 -4 -124 -3 -70 37 c-155 82
-325 90 -397 18 -34 -34 -35 -60 -5 -96 18 -21 35 -28 77 -32 l54 -5 -84 -39
c-142 -66 -225 -89 -317 -90 -88 0 -95 2 -196 71 -64 44 -65 44 -44 61 31 26
27 77 -8 108 -28 24 -33 25 -126 19 -53 -3 -141 -17 -195 -30 -81 -20 -126
-25 -244 -25 -219 -1 -450 -41 -562 -97 -37 -19 -72 -27 -127 -30 -42 -2 -118
-7 -170 -11 l-94 -7 6 36 c3 19 17 52 31 74 34 52 93 229 111 331 21 117 19
249 -6 389 -34 196 -34 186 -6 219 46 55 181 107 472 184 254 67 495 109 745
129 58 4 106 9 106 10 1 0 40 -50 87 -111z m-2125 23 c8 -5 12 -17 10 -27 -2
-15 -21 -22 -88 -36 -86 -17 -110 -13 -110 18 0 18 12 24 88 39 84 16 84 16
100 6z m371 -69 c7 -14 3 -29 -19 -62 -56 -86 -56 -86 -74 -71 -21 18 -20 37
6 80 43 73 68 88 87 53z m2766 -1215 c11 1 36 5 57 9 28 4 50 0 97 -21 l61
-28 0 -161 c0 -88 -5 -224 -10 -301 l-10 -140 -50 -47 c-63 -59 -129 -77 -217
-59 -141 28 -297 138 -327 229 -8 26 -16 63 -16 82 -3 63 -2 65 23 43 60 -56
159 -73 222 -40 34 17 87 71 104 104 21 41 17 94 -8 115 -13 10 -28 18 -35 18
-24 0 -57 -33 -73 -71 -30 -77 -106 -87 -163 -23 -36 42 -37 53 -6 102 69 108
234 213 306 194 14 -3 34 -5 45 -5z m-1125 -72 c102 -22 120 -33 152 -86 61
-98 59 -243 -5 -372 -40 -82 -160 -201 -241 -241 -203 -98 -389 -77 -523 60
-88 90 -181 307 -166 387 23 129 179 237 388 270 61 10 321 -2 395 -18z
m-1549 -272 c11 -12 8 -12 -17 -2 -41 18 -50 27 -20 22 14 -3 31 -12 37 -20z
m3286 -4499 c-3 -4 -35 -8 -69 -9 -40 -2 -109 -18 -189 -44 -224 -73 -268 -73
-439 2 l-95 42 295 5 c162 3 342 6 399 8 57 1 101 -1 98 -4z m-1232 -69 c-100
-56 -165 -81 -235 -89 -71 -9 -87 3 -92 68 l-3 49 105 4 c58 2 107 6 109 9 2
2 47 4 100 4 l96 -1 -80 -44z m460 -42 c162 -66 201 -77 290 -77 66 1 95 6
163 32 181 70 239 90 280 97 l42 7 0 -130 0 -130 -37 20 c-30 15 -52 19 -103
15 -58 -3 -83 -13 -197 -72 -188 -97 -237 -99 -371 -8 -150 102 -236 128 -329
102 -39 -10 -63 -28 -128 -95 -44 -46 -93 -88 -108 -93 -58 -22 -115 -13 -198
31 l-79 42 0 62 0 61 78 5 c95 6 167 32 296 104 173 97 222 100 401 27z m-136
-238 c23 -8 83 -42 135 -75 119 -77 168 -94 254 -88 70 5 85 11 243 96 113 61
168 73 234 48 l45 -18 0 -114 c0 -63 -3 -114 -6 -114 -3 0 -25 5 -50 11 -61
16 -137 -1 -291 -62 -175 -70 -265 -80 -343 -39 -14 7 -51 37 -82 67 -120 113
-194 111 -388 -12 -103 -66 -209 -69 -335 -11 l-55 25 0 76 c0 42 3 75 8 73
134 -69 189 -79 276 -54 50 15 71 30 150 105 114 110 125 115 205 86z m75
-364 c87 -81 133 -103 226 -109 94 -5 163 12 307 77 127 57 202 81 256 81 l40
0 -7 -112 c-4 -62 -8 -113 -10 -115 -2 -2 -23 2 -48 8 -58 16 -129 2 -246 -47
-174 -72 -193 -78 -277 -78 -87 0 -148 21 -240 84 -70 48 -146 80 -192 80 -32
0 -67 -13 -138 -50 -96 -50 -197 -77 -254 -66 -14 3 -43 7 -63 11 -59 9 -68
25 -68 117 0 79 0 80 23 74 101 -31 142 -39 207 -39 91 1 129 14 250 87 127
76 149 76 234 -3z m-43 -297 c109 -68 186 -94 282 -94 94 0 127 10 278 81 70
32 150 63 178 69 49 9 111 4 111 -9 0 -7 -17 -116 -25 -168 -6 -33 -7 -33 -62
-33 -42 0 -100 -15 -237 -62 -170 -58 -187 -62 -276 -62 -109 -1 -145 10 -252
79 -114 74 -148 89 -208 89 -45 1 -66 -5 -110 -32 -136 -81 -205 -101 -294
-88 l-46 7 0 101 c0 91 2 100 18 93 9 -4 53 -9 98 -12 107 -7 212 16 290 64
106 64 120 63 255 -23z m-63 -278 c211 -134 325 -137 620 -19 90 36 182 68
205 71 l40 5 -6 -53 c-4 -29 -13 -63 -22 -76 -24 -38 -86 -71 -145 -79 -30 -4
-116 -30 -190 -57 -148 -55 -232 -69 -296 -48 -21 7 -95 40 -163 74 -123 60
-125 61 -210 61 -77 0 -97 -4 -184 -39 l-97 -40 -73 30 -72 29 -3 45 -3 45
103 0 c90 0 110 4 160 27 32 15 73 39 92 53 74 57 117 51 244 -29z m43 -281
c151 -73 218 -88 309 -66 24 5 46 9 47 7 1 -1 -48 -32 -110 -68 l-112 -66 -36
19 c-21 10 -129 57 -241 105 -111 47 -207 89 -211 94 -5 4 15 17 45 29 88 35
144 25 309 -54z"/>
<path d="M8881 10481 c-10 -10 -27 -45 -36 -76 -10 -35 -28 -70 -46 -88 -26
-26 -35 -29 -70 -24 -52 7 -138 72 -163 123 -10 21 -22 46 -26 54 -4 8 -18 15
-31 15 -21 0 -24 -5 -27 -42 -5 -65 30 -133 102 -201 108 -100 214 -109 308
-24 46 41 109 164 110 214 2 59 -79 91 -121 49z"/>
<path d="M7212 10095 c63 -35 127 -94 189 -176 24 -31 28 -33 52 -22 15 7 29
24 33 40 6 24 0 33 -53 83 -75 71 -139 101 -223 107 l-65 4 67 -36z"/>
</g>
</svg>
